<?xml version="1.0" encoding="UTF-8"?>
<svg width="229px" height="101px" viewBox="0 0 229 101" version="1.1" xmlns="http://www.w3.org/2000/svg" xmlns:xlink="http://www.w3.org/1999/xlink">
    <title>banner_pricetag</title>
    <g id="banner_pricetag" stroke="none" stroke-width="1" fill="none" fill-rule="evenodd">
        <g id="price-tag">
            <path d="M8,0 L221,0 C225.418278,-8.11624501e-16 229,3.581722 229,8 L229,82 C229,86.418278 225.418278,90 221,90 L37,90 L37,90 C35.6666667,92 34,94 32,96 C30.5166016,97.4833984 28.666458,98.7834243 26.4495692,99.9000776 L26.450376,99.9016864 C25.4629958,100.396817 24.2611835,99.9977698 23.7660529,99.0103896 C23.6898396,98.8584065 23.6333174,98.6973254 23.5978537,98.5310435 C23.2257187,96.7805625 22.6928711,95.2702637 22,94 C21,92.1666667 19.6666667,90.8333333 18,90 L8,90 C3.581722,90 5.41083001e-16,86.418278 0,82 L0,8 C-5.41083001e-16,3.581722 3.581722,8.11624501e-16 8,0 Z" id="Rectangle" fill-opacity="0.232812841" fill="#FFFFFF"></path>
            <g id="¥-580" transform="translate(99.688965, 42.133789)" fill="#FFD732" fill-opacity="0.895857804" fill-rule="nonzero">
                <path d="M18.4511719,15.3300781 L22.4443359,15.3300781 L22.4443359,19.2773438 L17.2807617,19.2773438 L15.7431641,24.4179688 L22.4443359,24.4179688 L22.4443359,28.3422852 L15.7431641,28.3422852 L15.7431641,37.8662109 L6.79296875,37.8662109 L6.79296875,28.3422852 L0.321289062,28.3422852 L0.321289062,24.4179688 L6.79296875,24.4179688 L5.32421875,19.2773438 L0.321289062,19.2773438 L0.321289062,15.3300781 L4.17675781,15.3300781 L0,0.711425781 L8.88134766,0.711425781 C10.2736003,7.94807943 11.0538737,12.8209635 11.222168,15.3300781 C11.7576497,11.367513 12.6526693,6.49462891 13.9072266,0.711425781 L22.7885742,0.711425781 L18.4511719,15.3300781 Z" id="Path"></path>
                <path d="M52.6914062,0.711425781 L52.6914062,6.65527344 L41.1938477,6.65527344 L41.1938477,12.9663086 C42.6319987,11.2680664 44.4832357,10.4189453 46.7475586,10.4189453 C49.3025716,10.4189453 51.2341309,11.134196 52.5422363,12.5646973 C53.8503418,13.9951986 54.5043945,16.7452799 54.5043945,20.8149414 L54.5043945,26.1162109 C54.5043945,28.7477214 54.3781738,30.6792806 54.1257324,31.9108887 C53.873291,33.1424967 53.3339844,34.2823079 52.5078125,35.3303223 C51.6816406,36.3783366 50.5303548,37.1815592 49.0539551,37.7399902 C47.5775553,38.2984212 45.7760417,38.5776367 43.6494141,38.5776367 C41.2626953,38.5776367 39.1590169,38.1607259 37.3383789,37.3269043 C35.5177409,36.4930827 34.2249349,35.25 33.4599609,33.5976562 C32.694987,31.9453125 32.3125,29.3902995 32.3125,25.9326172 L32.3125,23.9130859 L41.5839844,23.9130859 L41.5839844,26.230957 C41.5839844,28.6329753 41.6681315,30.3388672 41.8364258,31.3486328 C42.0047201,32.3583984 42.5861003,32.8632812 43.5805664,32.8632812 C44.0395508,32.8632812 44.4105632,32.7179362 44.6936035,32.4272461 C44.9766439,32.136556 45.1296387,31.8229167 45.1525879,31.4863281 C45.1755371,31.1497396 45.2023112,29.6886393 45.2329102,27.1030273 L45.2329102,19.7363281 C45.2329102,18.3440755 45.0875651,17.3955078 44.796875,16.890625 C44.5061849,16.3857422 44.0242513,16.1333008 43.3510742,16.1333008 C42.9226888,16.1333008 42.563151,16.2633464 42.2724609,16.5234375 C41.9817708,16.7835286 41.7943522,17.0627441 41.7102051,17.361084 C41.6260579,17.6594238 41.5839844,18.3517253 41.5839844,19.4379883 L32.4042969,19.4379883 L32.7944336,0.711425781 L52.6914062,0.711425781 Z" id="Path"></path>
                <path d="M75.3652344,16.7988281 C76.726888,17.3496094 77.7749023,18.1719564 78.5092773,19.2658691 C79.2436523,20.3597819 79.6108398,22.9645182 79.6108398,27.0800781 C79.6108398,30.078776 79.3201497,32.2895508 78.7387695,33.7124023 C78.1573893,35.1352539 77.0252279,36.3018392 75.3422852,37.2121582 C73.6593424,38.1224772 71.4026693,38.5776367 68.5722656,38.5776367 C65.8183594,38.5776367 63.6381836,38.1416016 62.0317383,37.2695312 C60.425293,36.3974609 59.2740072,35.2423503 58.5778809,33.8041992 C57.8817546,32.3660482 57.5336914,29.9716797 57.5336914,26.6210938 C57.5336914,24.3720703 57.7058105,22.4213867 58.0500488,20.769043 C58.3942871,19.1166992 59.4767253,17.7932943 61.2973633,16.7988281 C60.1499023,16.2480469 59.2893066,15.3721517 58.7155762,14.1711426 C58.1418457,12.9701335 57.8549805,11.4440104 57.8549805,9.59277344 C57.8549805,6.39518229 58.7423503,3.99698893 60.5170898,2.39819336 C62.2918294,0.799397786 64.9462891,0 68.4804688,0 C72.5654297,0 75.3881836,0.849121094 76.9487305,2.54736328 C78.5092773,4.24560547 79.2895508,6.67057292 79.2895508,9.82226562 C79.2895508,11.8264974 79.0332845,13.2722982 78.520752,14.159668 C78.0082194,15.0470378 76.9563802,15.9267578 75.3652344,16.7988281 Z M70.1557617,8.8125 C70.1557617,7.55794271 70.0448405,6.72794596 69.822998,6.32250977 C69.6011556,5.91707357 69.1765951,5.71435547 68.5493164,5.71435547 C67.9373372,5.71435547 67.5242513,5.93237305 67.3100586,6.3684082 C67.0958659,6.80444336 66.9887695,7.61914062 66.9887695,8.8125 L66.9887695,11.6352539 C66.9887695,12.7521159 67.1111654,13.5247396 67.355957,13.953125 C67.6007487,14.3815104 68.0138346,14.5957031 68.5952148,14.5957031 C69.207194,14.5957031 69.6202799,14.3853353 69.8344727,13.9645996 C70.0486654,13.5438639 70.1557617,12.6756185 70.1557617,11.3598633 L70.1557617,8.8125 Z M70.3393555,24.2573242 C70.3393555,22.8344727 70.1940104,21.8897298 69.9033203,21.4230957 C69.6126302,20.9564616 69.1536458,20.7231445 68.5263672,20.7231445 C67.914388,20.7231445 67.474528,20.9488118 67.2067871,21.4001465 C66.9390462,21.8514811 66.8051758,22.8038737 66.8051758,24.2573242 L66.8051758,29.0766602 C66.8051758,30.6831055 66.9543457,31.7158203 67.2526855,32.1748047 C67.5510254,32.6337891 68.0214844,32.8632812 68.6640625,32.8632812 C69.3219401,32.8632812 69.765625,32.6299642 69.9951172,32.1633301 C70.2246094,31.696696 70.3393555,30.6448568 70.3393555,29.0078125 L70.3393555,24.2573242 Z" id="Shape"></path>
                <path d="M104.671387,13.2875977 L104.671387,25.6801758 C104.671387,28.4952799 104.518392,30.5454102 104.212402,31.8305664 C103.906413,33.1157227 103.271484,34.3167318 102.307617,35.4335938 C101.34375,36.5504557 100.18099,37.3536784 98.8193359,37.8432617 C97.4576823,38.3328451 95.9353841,38.5776367 94.2524414,38.5776367 C92.0340169,38.5776367 90.1904297,38.3213704 88.7216797,37.8088379 C87.2529297,37.2963053 86.0825195,36.4969076 85.2104492,35.4106445 C84.3383789,34.3243815 83.71875,33.1807454 83.3515625,31.9797363 C82.984375,30.7787272 82.8007812,28.8701172 82.8007812,26.2539062 L82.8007812,13.2875977 C82.8007812,9.8758138 83.0952962,7.32080078 83.6843262,5.62255859 C84.2733561,3.92431641 85.4437663,2.56266276 87.1955566,1.53759766 C88.947347,0.512532552 91.0701497,0 93.5639648,0 C95.5987956,0 97.4194336,0.355712891 99.0258789,1.06713867 C100.632324,1.77856445 101.833333,2.6468099 102.628906,3.671875 C103.424479,4.6969401 103.963786,5.85205078 104.246826,7.13720703 C104.529867,8.42236328 104.671387,10.4724935 104.671387,13.2875977 Z M95.3999023,10.1665039 C95.3999023,8.19287109 95.3042806,6.95743815 95.1130371,6.46020508 C94.9217936,5.96297201 94.4742839,5.71435547 93.7705078,5.71435547 C93.0820312,5.71435547 92.6268717,5.97827148 92.4050293,6.50610352 C92.1831868,7.03393555 92.0722656,8.25406901 92.0722656,10.1665039 L92.0722656,28.2963867 C92.0722656,30.4536133 92.1755371,31.754069 92.3820801,32.1977539 C92.588623,32.6414388 93.0361328,32.8632812 93.7246094,32.8632812 C94.4130859,32.8632812 94.8644206,32.6031901 95.0786133,32.0830078 C95.292806,31.5628255 95.3999023,30.3924154 95.3999023,28.5717773 L95.3999023,10.1665039 Z" id="Shape"></path>
            </g>
            <text id="¥-630" opacity="0.837528047" font-family="Impact" font-size="20" font-style="condensed" font-weight="700" line-spacing="24" fill="#FFFFFF" fill-opacity="0.895857804" text-decoration="line-through">
                <tspan x="40.4267578" y="76">¥ 630</tspan>
            </text>
            <text id="学习使用软路由，做任务赢返现，最低仅需：" font-family="PingFangSC-Regular, PingFang SC" font-size="14" font-weight="normal" line-spacing="20" fill="#FFFFFF" fill-opacity="0.895857804">
                <tspan x="14" y="25">学习使用软路由，做任务赢返现，</tspan>
                <tspan x="14" y="45">最低仅需：</tspan>
            </text>
        </g>
    </g>
</svg>