<?xml version="1.0" encoding="UTF-8"?>
<svg width="37px" height="34px" viewBox="0 0 37 34" version="1.1" xmlns="http://www.w3.org/2000/svg" xmlns:xlink="http://www.w3.org/1999/xlink">
    <title>duihua-2</title>
    <g id="第七版" stroke="none" stroke-width="1" fill="none" fill-rule="evenodd" fill-opacity="0.8">
        <g id="正常页面" transform="translate(-1392.000000, -724.000000)" fill="#FFFFFF" fill-rule="nonzero">
            <g id="Group-7" transform="translate(1376.000000, 632.000000)">
                <g id="duihua-2" transform="translate(16.000000, 92.000000)">
                    <path d="M10.3278399,10.7368421 C10.7717923,10.7368421 11.1380531,11.0632004 11.1849147,11.4816084 L11.1899796,11.5725908 L11.1899796,14.4083726 C11.1899796,17.3907851 13.6340044,19.8141082 16.6809266,19.9098482 L16.9762737,19.9130366 L16.9762737,19.9130366 L23.7058708,19.9300779 L23.7058708,19.9300779 C24.0406646,19.9353983 24.3197298,20.1764541 24.3606819,20.4945772 L24.3658537,20.5756217 L24.3658537,25.3883815 C24.3658537,27.180095 22.9070234,28.6454606 21.0794777,28.7277332 L20.9172946,28.7313763 L13.3423562,28.7313763 C12.9829661,28.7313763 12.628274,28.854337 12.3492703,29.0759699 L12.2483305,29.1636601 L7.62250473,33.5326085 C6.59355248,34.5132524 4.87333314,33.8485938 4.77855934,32.4867398 L4.77447059,32.3683241 L4.77447059,29.3250461 C4.77447059,29.0217823 4.54142371,28.7725413 4.23900836,28.735991 L4.16205407,28.7313763 L3.35342642,28.7313763 C1.55290084,28.7313763 0.0884462206,27.3576561 0.00385937903,25.6378709 L0,25.480602 L0,14.3276796 C0,12.3985255 1.57041861,10.8240399 3.53926078,10.7403417 L3.70422812,10.7368421 L10.3278399,10.7368421 Z M33.2898261,0 C35.2798986,0 36.9041029,1.52251379 36.9959207,3.43129743 L37,3.59123252 L37,14.7453817 C37,16.4909832 35.5829008,17.9107653 33.8088086,17.9927719 L33.6465736,17.9965135 L32.8379459,17.9965135 C32.5251058,17.9965135 32.2679943,18.2224514 32.2302898,18.5156418 L32.2255294,18.5902486 L32.2255294,21.6338614 C32.2255294,23.0349353 30.5395121,23.7603802 29.4677984,22.8778766 L29.3774953,22.7982739 L24.7516695,18.4288449 C24.4926972,18.1828964 24.1538605,18.0325945 23.7936222,18.0022305 L23.6576438,17.9965135 L16.0827054,17.9965135 C14.2344137,17.9965135 12.722775,16.5821841 12.6379045,14.8103869 L12.6341463,14.653151 L12.6341463,3.37218463 C12.6341463,1.56347491 14.1041984,0.0865886195 15.948737,0.00367161507 L16.1124344,0 L33.2898261,0 Z" id="Shape"></path>
                </g>
            </g>
        </g>
    </g>
</svg>