<?xml version="1.0" encoding="UTF-8"?>
<svg width="34px" height="32px" viewBox="0 0 34 32" version="1.1" xmlns="http://www.w3.org/2000/svg" xmlns:xlink="http://www.w3.org/1999/xlink">
    <title>tianchongxing-</title>
    <g id="第七版" stroke="none" stroke-width="1" fill="none" fill-rule="evenodd" fill-opacity="0.8">
        <g id="正常页面" transform="translate(-1391.000000, -648.000000)" fill="#FFFFFF" fill-rule="nonzero">
            <g id="Group-7" transform="translate(1376.000000, 632.000000)">
                <g id="tianchongxing-" transform="translate(15.000000, 16.000000)">
                    <path d="M14,28 C15.1045695,28 16,28.8954305 16,30 C16,31.1045695 15.1045695,32 14,32 C12.8954305,32 12,31.1045695 12,30 C12,28.8954305 12.8954305,28 14,28 Z M24,28 C25.1045695,28 26,28.8954305 26,30 C26,31.1045695 25.1045695,32 24,32 C22.8954305,32 22,31.1045695 22,30 C22,28.8954305 22.8954305,28 24,28 Z M6.70661328,0 C7.81186315,0.0325045145 8.73111628,0.80900125 8.99222709,1.84914571 L8.99222709,1.84914571 L9.36064371,4.98402556 L32.2525504,4.98402556 C32.338395,4.99124878 32.4206628,5.00208362 32.5029306,5.01653007 C33.8657144,5.2801778 34.2734765,6.82955966 33.826369,7.97444089 L33.826369,7.97444089 L28.9904537,18.3072649 L28.9689925,18.3506043 C28.7436503,18.8056675 28.2929659,19.1379358 27.75286,19.174052 L27.75286,19.174052 L11.1598045,20.0914016 L11.4209153,22.3053202 C11.5174905,22.6809279 11.8930609,22.9770802 12.2900924,23.0384776 L12.2900924,23.0384776 L27.0410648,23.0384776 C27.8530121,23.0384776 28.5075775,23.7030143 28.5075775,24.5192388 C28.5075775,25.3390749 27.8494352,26 27.0410648,26 L27.0410648,26 L11.0632293,26 C9.85067359,26 8.84557581,25.10432 8.65957907,23.9341575 L8.65957907,23.9341575 L6.3525041,4.485623 L6.27739003,3.84636755 L6.26665945,3.75607723 C6.18796852,3.32629532 5.75159155,2.99402695 5.30806086,2.96152243 L5.30806086,2.96152243 L1.46651277,2.96152243 C0.654565456,2.96152243 0,2.29698569 0,1.48076122 C0,0.660925128 0.658142317,0 1.46651277,0 L1.46651277,0 Z" id="Combined-Shape"></path>
                </g>
            </g>
        </g>
    </g>
</svg>