<?xml version="1.0" encoding="UTF-8"?>
<svg width="24px" height="24px" viewBox="0 0 24 24" version="1.1" xmlns="http://www.w3.org/2000/svg" xmlns:xlink="http://www.w3.org/1999/xlink">
    <title>icon_drop</title>
    <g id="icon_drop" stroke="none" stroke-width="1" fill="none" fill-rule="evenodd">
        <g>
            <rect id="Rectangle" fill="#D8D8D8" opacity="0" x="0" y="0" width="24" height="24"></rect>
            <g id="drop" transform="translate(1.000000, 0.000000)" fill="#FFFFFF" fill-rule="nonzero">
                <path d="M11,0 C11.4150943,0.287089549 11.8184407,0.572282608 12.2100392,0.855579179 L12.9775721,1.41964367 C18.992524,5.91193035 22,9.9187158 22,13.44 C22,19.272127 17.0751322,24 11,24 C7.69847158,24 4.73665941,22.6036818 2.72039132,20.39264 C1.02997553,18.6030928 0,16.2282317 0,13.6224295 C0,13.6058089 0.000142958216,13.5892759 0.000427774147,13.5728306 C0.000287013177,13.5289809 0,13.4845226 0,13.44 C0,9.9187158 3.00747597,5.91193035 9.02242791,1.41964367 L9.78996084,0.855579179 C10.1815593,0.572282608 10.5849057,0.287089549 11,0 Z M11,2.449 L10.9675441,2.47225424 C10.4530605,2.84443853 9.96119568,3.21202655 9.49182624,3.5748654 L8.80462812,4.11554269 C8.46944937,4.38408129 8.14688949,4.64990548 7.83689634,4.91295076 L7.23365025,5.43531699 C4.81612165,7.57298084 3.25023186,9.51887536 2.50677606,11.2368651 C3.78436246,11.0915647 5.34527499,11.4382558 6.68181818,12.2478841 C9.63706545,14.0380633 12.5936099,15.1115205 15.2727273,15.1115205 C17.6913087,15.1115205 19.0969834,13.6140135 19.9097167,12.5430359 C19.5141487,10.5286281 17.8193547,8.13489138 14.7663497,5.43531699 L14.1631037,4.91295076 C13.8531105,4.64990548 13.5305506,4.38408129 13.1953719,4.11554269 L12.5081738,3.5748654 C12.1561467,3.30273626 11.791466,3.02793571 11.4140795,2.75052827 L11,2.449 Z" id="Combined-Shape"></path>
            </g>
        </g>
    </g>
</svg>