<?xml version="1.0" encoding="UTF-8"?>
<svg width="24px" height="24px" viewBox="0 0 24 24" version="1.1" xmlns="http://www.w3.org/2000/svg" xmlns:xlink="http://www.w3.org/1999/xlink">
    <title>icon_media</title>
    <g id="icon_media" stroke="none" stroke-width="1" fill="none" fill-rule="evenodd">
        <path d="M4.99764382,21 C6.50134366,21 7.63833615,21.2951479 9.50064188,22.1470355 L9.50064188,22.1470355 L10.082185,22.4195655 C10.1830994,22.4678581 10.2861002,22.5176079 10.3913237,22.5688477 L10.3913237,22.5688477 L11.4188871,23.0775335 L12.113161,23.4148935 L12.7566419,23.7150355 C12.9271112,23.7925173 13.0926534,23.8659557 13.2539471,23.9354909 C12.8404607,23.9780124 12.42162,24 11.9976438,24 C8.96729001,24 6.19928817,22.8767376 4.08728538,21.0238599 C4.38574927,21.0074954 4.68925965,21 4.99764382,21 Z M4.99764382,17 C6.50134366,17 7.63833615,17.2951479 9.50064188,18.1470355 L9.50064188,18.1470355 L10.082185,18.4195655 C10.1830994,18.4678581 10.2861002,18.5176079 10.3913237,18.5688477 L10.3913237,18.5688477 L11.4188871,19.0775335 L12.113161,19.4148935 L12.7566419,19.7150355 C14.8250028,20.6551479 16.1680103,21 17.9976438,21 C18.6869792,21 19.3566682,20.9792367 20.0066881,20.9376246 C19.0955192,21.7532944 18.0600916,22.4323102 16.9317426,22.9419203 C15.8864012,22.8196988 14.8958176,22.4939123 13.4946458,21.8529645 L13.4946458,21.8529645 L12.9131026,21.5804345 C12.8121882,21.5321419 12.7091875,21.4823921 12.603964,21.4311523 L12.603964,21.4311523 L11.5764006,20.9224665 L10.8821266,20.5851065 L10.2386458,20.2849645 C8.17028483,19.3448521 6.82727732,19 4.99764382,19 C4.092162,19 3.21931193,19.058638 2.37959173,19.1760252 C1.96649312,18.6243168 1.60022323,18.0353359 1.28618714,17.4154126 C2.43482767,17.1386821 3.67114725,17 4.99764382,17 Z M4.99764382,13 C6.50134366,13 7.63833615,13.2951479 9.50064188,14.1470355 L9.50064188,14.1470355 L10.082185,14.4195655 C10.1830994,14.4678581 10.2861002,14.5176079 10.3913237,14.5688477 L10.3913237,14.5688477 L11.4188871,15.0775335 L12.113161,15.4148935 L12.7566419,15.7150355 C14.8250028,16.6551479 16.1680103,17 17.9976438,17 C19.840488,17 21.5429218,16.8516076 23.1045112,16.5531871 C22.7893453,17.3192056 22.3977836,18.045911 21.9388204,18.7232246 C20.723421,18.9075546 19.409485,19 17.9976438,19 C16.493944,19 15.3569515,18.7048521 13.4946458,17.8529645 L13.4946458,17.8529645 L12.9131026,17.5804345 C12.8121882,17.5321419 12.7091875,17.4823921 12.603964,17.4311523 L12.603964,17.4311523 L11.5764006,16.9224665 L10.8821266,16.5851065 L10.2386458,16.2849645 C8.17028483,15.3448521 6.82727732,15 4.99764382,15 C3.40670107,15 1.91649554,15.1810211 0.529729087,15.5436657 C0.351037829,14.965904 0.214767199,14.3674963 0.124917399,13.7540088 C1.58975835,13.2513039 3.21199683,13 4.99764382,13 Z M11.9976438,0 C18.6250608,0 23.9976438,5.372583 23.9976438,12 C23.9976438,12.8075956 23.917866,13.5965581 23.7657611,14.3594365 C22.0702853,14.7856518 20.1474682,15 17.9976438,15 C16.493944,15 15.3569515,14.7048521 13.4946458,13.8529645 L13.4946458,13.8529645 L12.9131026,13.5804345 C12.8121882,13.5321419 12.7091875,13.4823921 12.603964,13.4311523 L12.603964,13.4311523 L11.5764006,12.9224665 L10.8821266,12.5851065 L10.2386458,12.2849645 C8.17028483,11.3448521 6.82727732,11 4.99764382,11 C3.2021634,11 1.53498759,11.2305586 5.81756865e-14,11.6925419 C0.16434256,5.20747359 5.47285788,0 11.9976438,0 Z" id="Combined-Shape" fill="#FFFFFF"></path>
    </g>
</svg>