<?xml version="1.0" encoding="UTF-8"?>
<svg width="24px" height="24px" viewBox="0 0 24 24" version="1.1" xmlns="http://www.w3.org/2000/svg" xmlns:xlink="http://www.w3.org/1999/xlink">
    <title>icon_rescuemode</title>
    <g id="icon_rescuemode" stroke="none" stroke-width="1" fill="none" fill-rule="evenodd">
        <g id="Group-14" fill="#FFFFFF">
            <path d="M0.0410296687,12.9994652 L5.07103341,13.0010101 C5.50993388,16.066221 7.9346412,18.4906422 10.9999918,18.92911 L10.9999918,18.92911 L10.9995331,23.9588877 C5.16977641,23.4777149 0.52172513,18.8293572 0.0410296687,12.9994652 Z M23.9589703,12.9994652 C23.4782473,18.8296911 18.8296911,23.4782473 12.9994652,23.9589703 L13.0010101,18.9289666 C16.0658871,18.4901139 18.4901139,16.0658871 18.9289666,13.0010101 L18.9289666,13.0010101 Z M12.9994652,0.0410296687 C18.8293572,0.52172513 23.4777149,5.16977641 23.9588877,10.9995331 L18.92911,10.9999918 C18.4906422,7.9346412 16.066221,5.50993388 13.0010101,5.07103341 L13.0010101,5.07103341 Z M10.9995331,0.0411123034 L10.9999918,5.07089004 C7.93430725,5.50940557 5.50940557,7.93430725 5.07089004,10.9999918 L5.07089004,10.9999918 L0.0411123034,10.9995331 C0.522257557,5.17011031 5.17011031,0.522257557 10.9995331,0.0411123034 Z" id="Combined-Shape"></path>
        </g>
    </g>
</svg>