<?xml version="1.0" encoding="UTF-8"?>
<svg width="128px" height="128px" viewBox="0 0 128 128" version="1.1" xmlns="http://www.w3.org/2000/svg" xmlns:xlink="http://www.w3.org/1999/xlink">
    <title>logo_wangxinyun</title>
    <g id="logo_wangxinyun" stroke="none" stroke-width="1" fill="none" fill-rule="evenodd">
        <g id="logo-copy">
            <rect id="Rectangle" fill-opacity="0.134326001" fill="#FFFFFF" x="0" y="0" width="128" height="128" rx="64"></rect>
            <path d="M64,31 C79.0338433,31 91.4110499,42.3094172 92.9953389,56.8384637 C99.4126597,59.1420208 104,65.252642 104,72.4285714 C104,81.4742984 96.7106033,88.8272243 87.6537132,88.9969995 L87.2933324,89 L40.6666667,89 C40.2918262,89 39.9198759,88.9876964 39.551202,88.9634733 L39.0006968,88.9182469 L38.7744624,88.8943767 L38.2503433,88.8271124 L37.4791942,88.6972739 L36.9914403,88.5957653 L36.7522694,88.5403895 L36.2985102,88.4250161 L35.7675404,88.2725062 C35.5072216,88.1930304 35.2493232,88.1072802 34.9943191,88.0155195 L34.6610827,87.8915623 L34.0213981,87.6303903 L33.5193951,87.4031957 L32.9089512,87.0991859 L32.4231839,86.8343465 L31.9304496,86.5437195 C31.7089429,86.4079024 31.4906335,86.2669111 31.2759303,86.1210576 C30.8432781,85.8271537 30.4251082,85.5133728 30.0229075,85.1811388 L29.7500221,84.950782 L29.4173679,84.6560416 L28.9458307,84.2099062 L28.4292359,83.6787599 L28.1521992,83.3735239 L28.0160828,83.2178509 C27.9369546,83.1262157 27.8587333,83.0336107 27.7815205,82.9401506 L27.5472399,82.6500242 L27.322245,82.3583531 L27.0549096,81.9935367 L26.717789,81.5016596 L26.4708161,81.115543 C26.3901588,80.985525 26.3109855,80.8538481 26.2336142,80.7210043 L26.0038922,80.313417 L25.8170481,79.9605474 L25.6049293,79.5328002 L25.4617852,79.2251955 C25.3954312,79.0786689 25.33122,78.9311616 25.2691213,78.7825619 C25.0598787,78.2818508 24.8746247,77.7687473 24.7147815,77.2446606 L24.5418743,76.6357938 L24.5207502,76.5546933 C24.4575895,76.3096489 24.3998711,76.0621674 24.3477963,75.8126307 C24.3138376,75.6499088 24.2822606,75.486211 24.253125,75.3216765 C24.2239423,75.1568829 24.1971918,74.9911346 24.1729326,74.8245843 L24.123102,74.4528612 L24.0717208,73.9761666 L24.0506462,73.7300641 C24.0373974,73.5604701 24.0267285,73.3904162 24.018658,73.2196864 C24.0062695,72.9576871 24,72.6938572 24,72.4285714 C24,72.1528238 24.0067737,71.8786491 24.0201648,71.6062031 L24.0384058,71.2946401 L24.0856133,70.738502 C24.1205124,70.3959983 24.165857,70.0568448 24.2213511,69.7210898 L24.2639411,69.4750414 L24.3289435,69.1361598 L24.399542,68.8054827 C24.4703597,68.4898026 24.5501148,68.1779355 24.6386188,67.8697378 C24.6826579,67.7163755 24.7289052,67.5637906 24.7772876,67.4121508 L24.8649283,67.1453871 L25.0388003,66.6567102 L25.2326872,66.1624816 L25.33972,65.9082208 L25.4917454,65.5661744 L25.6191033,65.2947632 L25.8298924,64.871665 L26.0263528,64.5026584 L26.2213981,64.1571488 C26.3138655,63.9978428 26.4090287,63.8400391 26.5067292,63.6839687 C26.7724011,63.2595417 27.0571869,62.8474728 27.359623,62.4494018 C27.5679581,62.1752058 27.7843243,61.9080502 28.0086629,61.6478907 L28.2444864,61.3802467 L28.5929039,61.0049643 L28.7808738,60.8117622 L29.0391493,60.556162 L29.2514701,60.3541313 L29.6459868,59.9968524 L30.0727505,59.6349932 L30.3282219,59.4297658 L30.6734073,59.1651835 L30.9648673,58.952594 L31.3401413,58.6926823 L31.6292708,58.5025424 L32.1846204,58.1606634 L32.6774601,57.8815565 L32.9801983,57.7208531 L33.2215972,57.5983557 L33.4918596,57.4669941 L33.8729985,57.2918339 L34.2937911,57.1117395 L34.6707135,56.9618837 L34.8710175,56.8865433 C35.0344006,56.8262887 35.1989923,56.7685082 35.3647467,56.7132476 L35.5853522,56.6414084 L35.8670078,56.5546066 L36.317629,56.4269895 L36.5284676,56.3719567 L36.853836,56.2927828 L37.4018563,56.1749508 L37.8166271,56.0984831 L38.0211464,56.064749 L38.3761243,56.0123544 L38.8779509,55.9514628 C39.4659479,55.8891005 40.0625538,55.8571429 40.6666667,55.8571429 C43.3793623,55.8571429 45.9406906,56.5015204 48.2042669,57.6447273 C48.7256201,57.9080339 49.3628335,58.3056862 50.1159073,58.8376843 C50.9147556,59.4020545 51.1048703,60.5071557 50.5405238,61.3060207 C50.4755279,61.3980261 50.401902,61.4836205 50.3206469,61.5616403 C49.4758877,62.3727646 48.1842208,62.4964552 47.2008737,61.8603976 C46.8333925,61.6226965 46.5124375,61.4358047 46.2380086,61.2997223 C44.5605345,60.4679049 42.6685571,60 40.6666667,60 C40.1085895,60 39.5590543,60.0363635 39.020327,60.1068374 L38.6183434,60.1660534 L38.3645343,60.2103383 L38.0685659,60.2688256 L37.6035644,60.3758828 L37.3695179,60.4369215 L37.0373421,60.5319676 L36.6360134,60.6602913 L36.3652252,60.7554453 L36.0964426,60.8569161 L35.8031015,60.9758583 L35.4995727,61.1082157 L35.16214,61.2668383 L34.9114639,61.3927928 L34.6003935,61.5591013 C34.374377,61.6840709 34.1526656,61.8158075 33.9355362,61.9540357 L33.5135253,62.2348537 L33.215,62.449 L33.0485246,62.5741283 C32.9704485,62.6338874 32.8931026,62.6945433 32.8165025,62.7560803 L32.6306379,62.9083464 L32.3891259,63.1153472 L32.0546579,63.4203247 L31.8707297,63.5977964 L31.5577414,63.9172059 L31.5001932,63.9784794 C31.2915296,64.2021487 31.0910452,64.433468 30.899213,64.6719669 C30.8055466,64.7884207 30.713987,64.9065274 30.6245431,65.0262895 L30.5019406,65.1933264 L30.2174531,65.6049166 L30.0667967,65.8381459 C29.9385388,66.0416501 29.8160187,66.249158 29.6994924,66.4603985 C29.6294314,66.5874098 29.5616031,66.7156402 29.4959867,66.8451682 C29.427255,66.9808459 29.3609554,67.1179362 29.2971389,67.2563936 L29.2054067,67.4602579 L29.1171736,67.6662721 C28.9064324,68.1709663 28.728179,68.6924533 28.5850079,69.2281533 C28.4384083,69.7767244 28.3286273,70.3399583 28.2583866,70.9153167 L28.2265935,71.2037957 C28.2103805,71.3685993 28.1974048,71.5343468 28.1877306,71.7009746 C28.1737453,71.9419745 28.1666667,72.1844511 28.1666667,72.4285714 C28.1666667,72.8305884 28.1858636,73.2281473 28.2233958,73.6203913 L28.2570053,73.930472 L28.3004419,74.2533421 C28.3459253,74.5607072 28.4027247,74.8644122 28.4704059,75.1640254 C28.5152313,75.362524 28.5650604,75.5600419 28.619578,75.7556218 C28.694973,76.0260691 28.7792156,76.2924797 28.8720636,76.5548589 L28.9600574,76.7955123 C29.1119931,77.1979823 29.2843215,77.5905357 29.4757912,77.9719284 C29.5475305,78.1148373 29.6221215,78.2564769 29.6993451,78.3964771 L29.8679362,78.692423 L30.1457584,79.1426604 L30.429866,79.562837 L30.6954851,79.9249128 C30.8081811,80.0728749 30.9241318,80.2182507 31.0432312,80.3609348 L31.2048016,80.5506287 L31.4228358,80.7949834 L31.6160598,81.0011993 L31.8509269,81.2398021 L32.0132032,81.3974469 C32.1661181,81.5433406 32.3227564,81.6854058 32.4829621,81.8234874 L32.6484413,81.9636402 L32.9814592,82.2313222 L33.276226,82.4532389 L33.5133497,82.6221671 L33.8439206,82.8442218 L34.2314304,83.0857531 L34.5021921,83.2431653 L34.8403272,83.4273101 L35.1514225,83.5850632 L35.4983248,83.748363 L35.7846407,83.8735072 L36.1843707,84.0342022 L36.6194329,84.1912261 L37.037316,84.3251674 L37.4842878,84.4507592 L37.8652731,84.5438156 L38.1486076,84.6048677 L38.4614292,84.6643463 L38.7773144,84.716098 C39.2946289,84.7940813 39.8223521,84.8405388 40.3584399,84.8534383 L40.6666667,84.8571429 L64,84.8571429 L64.4134207,84.8538127 C78.0298571,84.6343045 89,73.5909387 89,60 C89,46.2717791 77.8071187,35.1428571 64,35.1428571 C52.8033472,35.1428571 43.3258506,42.4613794 40.142331,52.549745 C38.5934518,52.5891903 37.0883607,52.8039116 35.6463514,53.1745544 C38.731916,40.4524035 50.2557504,31 64,31 Z M63.7600606,52.5253639 L71.477626,60.2429293 C72.2586746,61.0239779 72.2586746,62.2903078 71.477626,63.0713564 L63.7600606,70.7889219 C62.979012,71.5699704 61.712682,71.5699704 60.9316335,70.7889219 L53.214068,63.0713564 C52.4330194,62.2903078 52.4330194,61.0239779 53.214068,60.2429293 L60.9316335,52.5253639 C61.712682,51.7443153 62.979012,51.7443153 63.7600606,52.5253639 Z" id="Combined-Shape" fill="#D3D3D3"></path>
        </g>
    </g>
</svg>