<svg width="694" height="707" viewBox="0 0 694 707" fill="none" xmlns="http://www.w3.org/2000/svg">
<rect x="1" y="1" width="692" height="705" rx="7" fill="#F9F9F9" fill-opacity="0.1" stroke="url(#paint0_linear_32:1170)" stroke-width="2" stroke-dasharray="4 4"/>
<path d="M27.68 28.864V46H40.448V43.6H30.488V38.416H39.464V36.016H30.488V31.264H40.04V28.864H27.68ZM48.4784 33.256C46.8944 33.256 45.6464 33.52 44.7344 34.096C43.6544 34.72 42.9824 35.728 42.7184 37.096L45.4304 37.312C45.5744 36.664 45.9344 36.184 46.4624 35.872C46.9184 35.584 47.5184 35.464 48.2864 35.464C50.0624 35.464 50.9504 36.256 50.9504 37.888V38.368L48.2384 38.44C46.4144 38.488 44.9984 38.872 43.9904 39.592C42.8864 40.336 42.3584 41.416 42.3584 42.808C42.3584 43.84 42.7424 44.68 43.5104 45.352C44.2544 46 45.2624 46.336 46.5584 46.336C47.6384 46.336 48.5744 46.144 49.3664 45.784C50.0624 45.448 50.6624 44.992 51.1424 44.368V46H53.6864V38.08C53.6864 36.568 53.3024 35.416 52.5344 34.624C51.6704 33.712 50.3024 33.256 48.4784 33.256ZM50.9504 40.336V40.96C50.9504 41.92 50.5664 42.712 49.8464 43.336C49.1264 43.936 48.2384 44.248 47.1824 44.248C46.5824 44.248 46.1024 44.08 45.7184 43.792C45.3344 43.504 45.1664 43.144 45.1664 42.712C45.1664 41.224 46.2464 40.456 48.4304 40.408L50.9504 40.336ZM61.2528 33.256C59.7168 33.256 58.4928 33.568 57.5568 34.24C56.5968 34.864 56.1408 35.752 56.1408 36.904C56.1408 37.984 56.6208 38.824 57.5808 39.424C58.1808 39.808 59.2128 40.168 60.6768 40.504C61.9248 40.792 62.7408 41.008 63.1248 41.2C63.8448 41.536 64.2048 41.992 64.2048 42.568C64.2048 43.576 63.2448 44.104 61.3248 44.104C60.4128 44.104 59.7648 43.936 59.3568 43.648C58.9488 43.312 58.6608 42.76 58.5168 41.968H55.8528C56.1168 44.872 57.9648 46.336 61.4208 46.336C65.1408 46.336 67.0128 45.016 67.0128 42.376C67.0128 41.272 66.5088 40.384 65.5248 39.76C64.8528 39.304 63.7968 38.92 62.4048 38.584C61.1568 38.272 60.3408 38.032 59.9328 37.864C59.2608 37.576 58.9488 37.216 58.9488 36.832C58.9488 36.352 59.1408 36.016 59.5728 35.8C59.9328 35.584 60.4848 35.488 61.2048 35.488C62.0448 35.488 62.6688 35.608 63.0768 35.872C63.4608 36.112 63.7488 36.568 63.9408 37.192H66.6048C66.3168 34.552 64.5168 33.256 61.2528 33.256ZM74.4622 33.256C72.6142 33.256 71.1502 33.88 70.0942 35.152C68.9902 36.4 68.4622 37.936 68.4622 39.784C68.4622 41.848 69.0382 43.456 70.1902 44.632C71.2702 45.76 72.7342 46.336 74.5822 46.336C76.2382 46.336 77.6062 45.856 78.7102 44.92C79.5742 44.152 80.1502 43.168 80.4382 42.016H77.7022C77.3662 42.712 77.0062 43.216 76.5982 43.528C76.0702 43.912 75.3982 44.104 74.5582 44.104C73.5742 44.104 72.8062 43.792 72.2782 43.192C71.7502 42.592 71.4382 41.704 71.3422 40.552H80.6302C80.6302 38.32 80.1262 36.568 79.1422 35.32C78.0622 33.928 76.5022 33.256 74.4622 33.256ZM74.5342 35.488C76.4542 35.488 77.5342 36.472 77.7742 38.488H71.3902C71.5582 37.504 71.8942 36.76 72.3982 36.256C72.9262 35.728 73.6222 35.488 74.5342 35.488ZM83.0394 28.864V46H85.8474V39.424H90.0954C94.2714 39.424 96.3594 37.648 96.3594 34.12C96.3594 30.616 94.2714 28.864 90.1434 28.864H83.0394ZM85.8474 31.264H89.9274C91.1514 31.264 92.0634 31.48 92.6394 31.936C93.2154 32.368 93.5274 33.088 93.5274 34.12C93.5274 35.152 93.2394 35.896 92.6634 36.352C92.0874 36.784 91.1754 37.024 89.9274 37.024H85.8474V31.264ZM100.374 28.528C99.8459 28.528 99.4139 28.696 99.0539 29.032C98.6939 29.368 98.5259 29.8 98.5259 30.328C98.5259 30.856 98.6939 31.288 99.0539 31.648C99.4139 31.984 99.8459 32.152 100.374 32.152C100.902 32.152 101.334 31.984 101.694 31.648C102.054 31.312 102.246 30.856 102.246 30.328C102.246 29.8 102.054 29.368 101.718 29.032C101.358 28.696 100.902 28.528 100.374 28.528ZM99.0059 33.592V46H101.742V33.592H99.0059ZM112.599 33.76H116.583C116.247 35.416 115.863 36.928 115.383 38.296C114.279 41.416 112.647 44.128 110.487 46.384L112.095 48.4C114.207 45.976 115.887 43.264 117.111 40.288C117.639 41.584 118.383 42.784 119.367 43.912C118.143 45.016 116.631 45.928 114.807 46.648L116.175 48.784C117.999 47.968 119.583 46.864 120.975 45.52C122.247 46.624 123.807 47.632 125.679 48.544L126.999 46.384C125.199 45.616 123.687 44.752 122.463 43.792C123.615 42.256 124.527 40.48 125.223 38.464V36.328H118.335C118.527 35.512 118.719 34.648 118.911 33.76H126.399V31.456H119.319C119.583 29.824 119.799 28.072 119.991 26.248H117.495C117.375 28.072 117.207 29.824 116.967 31.456H115.335C115.575 30.352 115.791 29.08 115.983 27.64L113.679 27.4C113.439 29.224 113.079 31.36 112.599 33.76ZM120.855 42.28C119.847 41.176 119.127 39.928 118.719 38.536H122.799C122.343 39.928 121.695 41.176 120.855 42.28ZM107.655 48.232C109.311 48.232 110.151 47.392 110.151 45.76V39.376C110.967 39.04 111.807 38.656 112.623 38.272V35.776C111.807 36.184 110.991 36.568 110.151 36.928V32.848H112.167V30.424H110.151V26.32H107.655V30.424H104.775V32.848H107.655V37.864C106.575 38.2 105.471 38.488 104.367 38.728L105.015 41.2C105.903 40.936 106.791 40.648 107.655 40.336V45.112C107.655 45.688 107.367 46 106.791 46C106.215 46 105.591 45.952 104.943 45.856L105.495 48.232H107.655ZM123.039 26.08L121.095 27.304C122.295 28.648 123.231 29.872 123.927 30.976L125.871 29.632C125.199 28.624 124.263 27.424 123.039 26.08ZM132.279 26.944V34.024H147.111V26.944H132.279ZM144.567 31.792H134.823V29.2H144.567V31.792ZM133.935 37.84L132.831 42.184H144.855C144.735 43.912 144.543 44.992 144.279 45.448C143.991 45.88 143.271 46.12 142.095 46.12C141.087 46.12 139.959 46.048 138.663 45.928L139.479 48.208C140.415 48.328 141.471 48.4 142.647 48.4C144.423 48.4 145.599 48.016 146.223 47.272C146.847 46.504 147.231 44.056 147.423 39.928H135.831L136.479 37.84H150.639V35.416H128.727V37.84H133.935Z" fill="white"/>
<path d="M167 23C167 21.8954 167.895 21 169 21H285C286.105 21 287 21.8954 287 23V51C287 52.1046 286.105 53 285 53H169C167.895 53 167 52.1046 167 51V23Z" fill="#ED3331"/>
<path d="M197.64 36.86H200.56V38.86H197.64V36.86ZM197.64 40.8H200.56V43.08H197.64V40.8ZM197.64 45.08H206V43.08H202.62V40.8H205.38V38.86H202.62V36.86H205.38V34.9H202.62V32.78H205.78V30.78H202.8C202.56 29.78 202.22 28.7 201.8 27.52L199.78 28.06C200.18 28.94 200.52 29.86 200.82 30.78H198.02C198.4 29.88 198.72 28.96 199 28L196.96 27.6C196.32 30.1 195.24 32.4 193.68 34.48L194.04 35.6C193.52 35.86 193 36.1 192.44 36.34V33.06H194.22V31.04H192.44V27.58H190.34V31.04H188V33.06H190.34V37.1C189.44 37.38 188.54 37.6 187.62 37.78L188.14 39.9C188.88 39.7 189.62 39.46 190.34 39.22V43.2C190.34 43.68 190.08 43.92 189.6 43.92C189.12 43.92 188.6 43.86 188.06 43.78L188.52 45.8H190.32C191.72 45.8 192.44 45.1 192.44 43.74V38.44C192.98 38.22 193.52 37.98 194.06 37.74V35.66L194.38 36.66C194.78 36.16 195.18 35.64 195.58 35.12V45.98H197.64V45.08ZM200.56 32.78V34.9H197.64V32.78H200.56ZM208.22 28.78V30.68H212.56V31.9H214.6C214.44 32.26 214.28 32.62 214.1 33H208.56V34.9H212.96C211.68 36.66 209.96 38.24 207.8 39.64L209.1 41.36C209.86 40.84 210.6 40.28 211.3 39.7V46.12H213.32V37.74C214.12 36.86 214.8 35.9 215.4 34.9H225.68V33H216.34C216.46 32.7 216.58 32.38 216.7 32.06L214.68 31.68V30.68H219.32V31.92H221.44V30.68H225.78V28.78H221.44V27.58H219.32V28.78H214.68V27.58H212.56V28.78H208.22ZM219.56 39.02V39.86H214.34V41.82H219.56V43.64C219.56 44 219.36 44.2 219 44.2C218.44 44.2 217.7 44.14 216.76 44.06L217.36 46.08H219.82C221.04 46.08 221.66 45.46 221.66 44.22V41.82H225.76V39.86H221.66V39.54C222.74 38.74 223.68 38.04 224.5 37.42V35.94H215.72V37.82H221.48C220.64 38.32 220 38.72 219.56 39.02ZM233.84 29.4V31.38H238.76V32.82H234.36V38.9H238.66C238.54 39.94 238.34 40.82 238.04 41.5C237.14 40.86 236.32 40.08 235.58 39.18L233.98 40.28C234.82 41.32 235.78 42.24 236.84 43.04C235.92 43.74 234.56 44.16 232.78 44.3L233.68 46.2C235.92 45.9 237.6 45.26 238.7 44.26C240.74 45.38 243.1 46.04 245.78 46.22L246.28 44.22C243.88 44.1 241.74 43.56 239.88 42.62C240.32 41.7 240.6 40.46 240.76 38.9H245.44V32.82H240.86V31.38H246.18V29.4H240.86V27.58H238.76V29.4H233.84ZM243.48 37.04H240.86V34.68H243.48V37.04ZM238.76 37.04H236.32V34.68H238.76V37.04ZM229.82 35.8V46.12H231.92V32.68C232.7 31.28 233.32 29.84 233.8 28.32L231.82 27.4C230.9 30.48 229.48 33.14 227.56 35.42L228.24 37.64C228.8 37.04 229.32 36.44 229.82 35.8ZM251.62 34.96H256.02V37.84H251.62V34.96ZM251.52 39.76H256.02V45.4H258.14V39.76H262.9V42.54C262.9 43.3 262.58 43.7 261.98 43.7C261.3 43.7 260.58 43.66 259.78 43.58L260.34 45.62H262.64C264.22 45.62 265.02 44.84 265.02 43.3V28.2H249.52V38.1C249.48 40.7 248.88 42.84 247.7 44.52L249.3 45.96C250.52 44.32 251.26 42.24 251.52 39.76ZM262.9 37.84H258.14V34.96H262.9V37.84ZM262.9 33.04H258.14V30.24H262.9V33.04ZM256.02 30.24V33.04H251.62V30.24H256.02Z" fill="white"/>
<path d="M290 217.5C290.828 217.5 291.5 216.828 291.5 216C291.5 215.172 290.828 214.5 290 214.5V217.5ZM101.939 335.061C102.525 335.646 103.475 335.646 104.061 335.061L113.607 325.515C114.192 324.929 114.192 323.979 113.607 323.393C113.021 322.808 112.071 322.808 111.485 323.393L103 331.879L94.5147 323.393C93.9289 322.808 92.9792 322.808 92.3934 323.393C91.8076 323.979 91.8076 324.929 92.3934 325.515L101.939 335.061ZM290 214.5H123V217.5H290V214.5ZM101.5 236V334H104.5V236H101.5ZM123 214.5C111.126 214.5 101.5 224.126 101.5 236H104.5C104.5 225.783 112.783 217.5 123 217.5V214.5Z" fill="white" fill-opacity="0.5"/>
<path d="M546 368.5C545.172 368.5 544.5 369.172 544.5 370C544.5 370.828 545.172 371.5 546 371.5V368.5ZM598 370H599.5V368.5H598V370ZM596.939 558.061C597.525 558.646 598.475 558.646 599.061 558.061L608.607 548.515C609.192 547.929 609.192 546.979 608.607 546.393C608.021 545.808 607.071 545.808 606.485 546.393L598 554.879L589.515 546.393C588.929 545.808 587.979 545.808 587.393 546.393C586.808 546.979 586.808 547.929 587.393 548.515L596.939 558.061ZM546 371.5H598V368.5H546V371.5ZM596.5 370V557H599.5V370H596.5Z" fill="white" fill-opacity="0.5"/>
<path d="M145.006 368.5C144.178 368.497 143.503 369.166 143.5 369.994C143.497 370.822 144.166 371.497 144.994 371.5L145.006 368.5ZM400.056 372.069C400.645 371.485 400.648 370.536 400.065 369.947L390.557 360.364C389.973 359.776 389.023 359.772 388.435 360.356C387.847 360.939 387.844 361.889 388.427 362.477L396.879 370.996L388.36 379.447C387.772 380.031 387.768 380.98 388.352 381.569C388.935 382.157 389.885 382.16 390.473 381.577L400.056 372.069ZM144.994 371.5L398.994 372.504L399.006 369.504L145.006 368.5L144.994 371.5Z" fill="white" fill-opacity="0.5"/>
<path d="M188 316C188 314.895 188.895 314 190 314H268C269.105 314 270 314.895 270 316V344C270 345.105 269.105 346 268 346H190C188.895 346 188 345.105 188 344V316Z" fill="#9C98FF"/>
<path d="M210.371 322.72V337H220.411V335H212.691V322.72H210.371ZM226.267 322.72L220.807 337H223.307L224.607 333.42H230.587L231.887 337H234.387L228.927 322.72H226.267ZM225.307 331.5L227.567 325.24H227.647L229.887 331.5H225.307ZM235.781 322.72V337H238.121V326.56H238.201L245.341 337H247.621V322.72H245.261V333.02H245.181L238.121 322.72H235.781Z" fill="white"/>
<path d="M599 321C599 319.895 599.895 319 601 319H679C680.105 319 681 319.895 681 321V349C681 350.105 680.105 351 679 351H601C599.895 351 599 350.105 599 349V321Z" fill="#9C98FF"/>
<path d="M621.371 327.72V342H631.411V340H623.691V327.72H621.371ZM637.267 327.72L631.807 342H634.307L635.607 338.42H641.587L642.887 342H645.387L639.927 327.72H637.267ZM636.307 336.5L638.567 330.24H638.647L640.887 336.5H636.307ZM646.781 327.72V342H649.121V331.56H649.201L656.341 342H658.621V327.72H656.261V338.02H656.181L649.121 327.72H646.781Z" fill="white"/>
<path d="M322 316C322 314.895 322.895 314 324 314H402C403.105 314 404 314.895 404 316V344C404 345.105 403.105 346 402 346H324C322.895 346 322 345.105 322 344V316Z" fill="#9C98FF"/>
<path d="M339.457 322.72L343.557 337H346.057L348.857 326.26H348.937L351.717 337H354.197L358.317 322.72H355.677L352.997 333.58H352.917L350.097 322.72H347.677L344.857 333.58H344.777L342.097 322.72H339.457ZM363.88 322.72L358.42 337H360.92L362.22 333.42H368.2L369.5 337H372L366.54 322.72H363.88ZM362.92 331.5L365.18 325.24H365.26L367.5 331.5H362.92ZM373.394 322.72V337H375.734V326.56H375.814L382.954 337H385.234V322.72H382.874V333.02H382.794L375.734 322.72H373.394Z" fill="white"/>
<path fill-rule="evenodd" clip-rule="evenodd" d="M319.106 97.4613C325.582 86.4201 337.625 79 351.411 79C365.198 79 377.24 86.4197 383.717 97.4605C385.436 97.1239 387.212 96.9475 389.031 96.9475C400.764 96.9475 410.77 104.294 414.648 114.612C425.82 116.149 434.426 125.734 434.426 137.329C434.426 149.995 424.158 160.262 411.493 160.262H290.828C278.163 160.262 267.896 149.995 267.896 137.329C267.896 125.553 276.771 115.851 288.198 114.546C292.093 104.263 302.082 96.948 313.79 96.948C315.609 96.948 317.386 97.1245 319.106 97.4613Z" fill="url(#paint1_linear_32:1170)"/>
<path fill-rule="evenodd" clip-rule="evenodd" d="M231.696 121.427C238.173 110.386 250.215 102.966 264.001 102.966C277.787 102.966 289.83 110.386 296.307 121.427C298.026 121.09 299.803 120.914 301.622 120.914C313.355 120.914 323.362 128.261 327.239 138.578C338.411 140.116 347.016 149.701 347.016 161.296C347.016 173.961 336.748 184.229 324.083 184.229H203.418C190.753 184.229 180.485 173.961 180.485 161.296C180.485 149.519 189.362 139.816 200.79 138.512C204.685 128.229 214.674 120.914 226.382 120.914C228.2 120.914 229.977 121.091 231.696 121.427Z" fill="url(#paint2_linear_32:1170)"/>
<path fill-rule="evenodd" clip-rule="evenodd" d="M146.451 123.126C148.532 119.579 152.401 117.196 156.83 117.196C161.259 117.196 165.128 119.579 167.209 123.127C167.762 123.018 168.333 122.962 168.918 122.962C172.687 122.962 175.902 125.322 177.148 128.636C180.736 129.131 183.5 132.21 183.5 135.935C183.5 140.004 180.202 143.302 176.133 143.302H137.367C133.298 143.302 130 140.004 130 135.935C130 132.151 132.852 129.033 136.523 128.615C137.775 125.311 140.984 122.961 144.745 122.961C145.329 122.961 145.9 123.018 146.451 123.126Z" fill="url(#paint3_linear_32:1170)"/>
<path fill-rule="evenodd" clip-rule="evenodd" d="M562.401 164.319C564.482 160.772 568.35 158.388 572.78 158.388C577.209 158.388 581.077 160.771 583.158 164.318C583.711 164.21 584.282 164.154 584.866 164.154C588.636 164.154 591.85 166.514 593.096 169.828C596.685 170.322 599.45 173.402 599.45 177.127C599.45 181.196 596.151 184.494 592.082 184.494H553.317C549.248 184.494 545.949 181.196 545.949 177.127C545.949 173.344 548.801 170.227 552.472 169.807C553.723 166.504 556.932 164.154 560.693 164.154C561.278 164.154 561.848 164.211 562.401 164.319Z" fill="url(#paint4_linear_32:1170)"/>
<path fill-rule="evenodd" clip-rule="evenodd" d="M420.834 121.427C427.311 110.386 439.353 102.966 453.139 102.966C466.925 102.966 478.968 110.386 485.445 121.427C487.164 121.091 488.942 120.914 490.761 120.914C502.494 120.914 512.501 128.261 516.378 138.578C527.549 140.117 536.153 149.701 536.153 161.296C536.153 173.961 525.886 184.229 513.221 184.229H392.556C379.89 184.229 369.623 173.961 369.623 161.296C369.623 149.519 378.5 139.815 389.929 138.512C393.824 128.229 403.813 120.914 415.521 120.914C417.339 120.914 419.115 121.09 420.834 121.427Z" fill="url(#paint5_linear_32:1170)"/>
<path d="M319.869 208.22V211.16H326.079C325.929 211.79 325.749 212.39 325.569 212.96C324.579 215.54 322.479 217.76 319.299 219.56L321.219 221.9C324.459 220.1 326.709 217.88 327.939 215.27C330.519 217.61 332.559 219.8 334.119 221.9L336.399 219.59C334.359 217.28 331.839 214.94 328.839 212.6C328.959 212.12 329.049 211.64 329.169 211.16H336.129V208.22H329.589C329.709 207.02 329.769 205.76 329.769 204.44H326.769C326.739 205.76 326.679 207.02 326.559 208.22H319.869ZM340.539 200.42H315.459V227.09H318.579V225.98H337.419V227.09H340.539V200.42ZM318.579 223.04V203.36H337.419V223.04H318.579ZM362.109 199.31V202.25H357.219V205.1H362.109V207.71H355.569V210.65H371.769V207.71H365.259V205.1H370.449V202.25H365.259V199.31H362.109ZM356.229 213.29V216.23H365.289V223.01C365.289 223.79 364.989 224.18 364.389 224.18C363.309 224.18 362.169 224.09 360.999 223.97L361.629 226.91H365.439C367.359 226.91 368.349 225.86 368.349 223.76V216.23H371.469V213.29H368.349V211.67H365.289V213.29H356.229ZM358.899 216.95L356.469 218.48C357.909 220.16 359.049 221.72 359.889 223.13L362.379 221.39C361.539 220.13 360.399 218.66 358.899 216.95ZM347.649 208.31H349.569V215.48C347.769 216.02 345.969 216.44 344.109 216.77L344.859 219.8C346.449 219.38 348.009 218.9 349.569 218.39V227.12H352.599V217.31C353.379 217.01 354.189 216.68 354.999 216.35V213.41C354.219 213.77 353.439 214.1 352.599 214.43V208.31H354.849V205.31H352.599V199.4H349.569V205.31H348.069C348.189 204.23 348.249 203.09 348.309 201.95L345.489 201.74C345.369 205.22 344.859 208.55 343.959 211.7L346.689 212.48C347.079 211.13 347.409 209.75 347.649 208.31ZM386.709 220.16L388.779 218.09C387.699 216.41 386.649 214.88 385.629 213.5C386.319 211.04 386.889 208.34 387.339 205.34L384.459 204.83C384.189 206.81 383.829 208.73 383.409 210.53C382.389 209.21 381.429 208.07 380.529 207.11L378.759 208.82V203.33H397.239V219.29C396.159 217.49 395.109 215.81 394.089 214.28C394.929 211.64 395.619 208.67 396.129 205.43L393.189 204.92C392.859 207.11 392.439 209.18 391.929 211.13C390.909 209.69 389.949 208.49 389.079 207.47L387.159 209.33C388.449 211.01 389.709 212.72 390.909 214.49C389.889 217.31 388.629 219.77 387.129 221.93L389.109 224.39C390.549 222.47 391.809 220.22 392.889 217.58C393.729 218.9 394.509 220.25 395.289 221.63L397.239 219.68V223.07C397.239 223.73 396.879 224.06 396.189 224.06L393.429 223.91L394.209 226.94H397.209C399.279 226.94 400.329 225.89 400.329 223.79V200.33H375.669V227.15H378.759V209.15C380.019 210.68 381.279 212.27 382.479 213.89C381.579 216.65 380.439 219.11 379.059 221.21L381.039 223.67C382.389 221.75 383.559 219.47 384.549 216.83C385.269 217.91 385.989 219.02 386.709 220.16Z" fill="white"/>
<rect width="141" height="17" rx="2" transform="matrix(1 0 0 -1 38 396)" fill="#5C5C5C"/>
<path d="M38 352C38 353.105 38.8954 354 40 354H123.662C125.511 354 126.37 351.707 124.977 350.492L110.065 337.492C109.701 337.175 109.234 337 108.751 337H40C38.8954 337 38 337.895 38 339V352Z" fill="#5C5C5C"/>
<rect x="17" y="343" width="175" height="48" rx="5" fill="#414141"/>
<rect x="31" y="351" width="148" height="32" rx="16" fill="#E9E9E9"/>
<rect x="35" y="355" width="140" height="24" rx="12" fill="white"/>
<rect x="43" y="362" width="40" height="10" rx="5" fill="#625BFF"/>
<path fill-rule="evenodd" clip-rule="evenodd" d="M108 362C105.239 362 103 364.239 103 367C103 369.761 105.239 372 108 372C110.761 372 113 369.761 113 367C113 364.239 110.761 362 108 362ZM121 367C121 364.239 123.239 362 126 362C128.761 362 131 364.239 131 367C131 369.761 128.761 372 126 372C123.239 372 121 369.761 121 367ZM144 362C141.239 362 139 364.239 139 367C139 369.761 141.239 372 144 372C146.761 372 149 369.761 149 367C149 364.239 146.761 362 144 362ZM162 362C159.239 362 157 364.239 157 367C157 369.761 159.239 372 162 372C164.761 372 167 369.761 167 367C167 364.239 164.761 362 162 362Z" fill="#FFD43D"/>
<path d="M88.41 426.46V437.11H76.8V440.17H84.48V440.2C84.36 443.08 83.76 445.39 82.62 447.16C81.48 448.81 79.29 450.19 76.05 451.33L77.82 454.12C81.18 452.98 83.61 451.36 85.11 449.26C86.67 446.98 87.51 443.95 87.66 440.2V440.17H91.89V449.83C91.89 452.17 92.97 453.37 95.13 453.37H99.9C101.1 453.37 101.97 453.07 102.57 452.47C103.17 451.84 103.59 449.86 103.86 446.56L100.8 445.6C100.68 447.94 100.53 449.32 100.29 449.8C100.08 450.22 99.75 450.46 99.33 450.46H96.06C95.37 450.46 95.04 450.01 95.04 449.17V440.17H103.23V437.11H91.59V426.46H88.41ZM98.31 427.78C97.35 430.09 96.09 432.43 94.5 434.77L97.38 436.27C98.97 433.99 100.26 431.65 101.25 429.19L98.31 427.78ZM81.81 428.08L78.84 429.49C80.25 431.47 81.57 433.75 82.8 436.27L85.77 434.77C84.51 432.34 83.19 430.12 81.81 428.08ZM132.93 436.3H117.12V454.06H120.12V452.95H129.93V454.06H132.93V436.3ZM120.12 450.07V446.08H123.6V450.07H120.12ZM126.48 450.07V446.08H129.93V450.07H126.48ZM120.12 443.29V439.18H123.6V443.29H120.12ZM126.48 439.18H129.93V443.29H126.48V439.18ZM119.88 426.43V429.52H116.22V432.43H119.88V435.31H122.82V432.43H127.14V435.34H130.08V432.43H133.74V429.52H130.08V426.43H127.14V429.52H122.82V426.43H119.88ZM114.36 426.49C113.58 427.78 112.74 428.95 111.9 429.97C111.18 428.92 110.31 427.87 109.29 426.85L106.83 428.77C107.97 429.79 108.96 430.9 109.77 432.16C108.57 433.21 107.31 434.05 106.05 434.68L107.73 437.41C109.05 436.51 110.19 435.67 111.18 434.89C111.18 434.92 111.21 434.98 111.24 435.04C111.54 435.85 111.78 436.81 111.96 437.92C110.52 440.23 108.54 442.24 106.02 443.95L107.79 446.59C109.53 445.3 111.06 443.77 112.38 441.97C112.41 442.57 112.44 443.26 112.44 443.98C112.44 447.64 112.14 449.83 111.6 450.55C111.36 450.88 110.88 451.06 110.1 451.06C109.23 451.06 108.3 450.97 107.34 450.85L108.27 453.76C108.9 453.79 109.74 453.82 110.79 453.82C111.96 453.82 112.89 453.55 113.61 453.01C114.81 451.99 115.44 449.05 115.44 444.13C115.35 439.63 114.87 436.18 114 433.78C113.85 433.42 113.7 433.06 113.52 432.7C114.66 431.5 115.77 429.97 116.91 428.11L114.36 426.49Z" fill="white"/>
<path d="M343 415C343 412.239 345.239 410 348 410H371.76C372.887 410 373.981 409.62 374.864 408.92L397.5 391V405C397.5 407.761 399.739 410 402.5 410H409C411.761 410 414 412.239 414 415L414 440.5C414 443.261 411.761 445.5 409 445.5H348C345.239 445.5 343 443.261 343 440.5V415Z" fill="#646464"/>
<path d="M366.42 424.8H369.74C369.46 426.18 369.14 427.44 368.74 428.58C367.82 431.18 366.46 433.44 364.66 435.32L366 437C367.76 434.98 369.16 432.72 370.18 430.24C370.62 431.32 371.24 432.32 372.06 433.26C371.04 434.18 369.78 434.94 368.26 435.54L369.4 437.32C370.92 436.64 372.24 435.72 373.4 434.6C374.46 435.52 375.76 436.36 377.32 437.12L378.42 435.32C376.92 434.68 375.66 433.96 374.64 433.16C375.6 431.88 376.36 430.4 376.94 428.72V426.94H371.2C371.36 426.26 371.52 425.54 371.68 424.8H377.92V422.88H372.02C372.24 421.52 372.42 420.06 372.58 418.54H370.5C370.4 420.06 370.26 421.52 370.06 422.88H368.7C368.9 421.96 369.08 420.9 369.24 419.7L367.32 419.5C367.12 421.02 366.82 422.8 366.42 424.8ZM373.3 431.9C372.46 430.98 371.86 429.94 371.52 428.78H374.92C374.54 429.94 374 430.98 373.3 431.9ZM362.3 436.86C363.68 436.86 364.38 436.16 364.38 434.8V429.48C365.06 429.2 365.76 428.88 366.44 428.56V426.48C365.76 426.82 365.08 427.14 364.38 427.44V424.04H366.06V422.02H364.38V418.6H362.3V422.02H359.9V424.04H362.3V428.22C361.4 428.5 360.48 428.74 359.56 428.94L360.1 431C360.84 430.78 361.58 430.54 362.3 430.28V434.26C362.3 434.74 362.06 435 361.58 435C361.1 435 360.58 434.96 360.04 434.88L360.5 436.86H362.3ZM375.12 418.4L373.5 419.42C374.5 420.54 375.28 421.56 375.86 422.48L377.48 421.36C376.92 420.52 376.14 419.52 375.12 418.4ZM382.82 419.12V425.02H395.18V419.12H382.82ZM393.06 423.16H384.94V421H393.06V423.16ZM384.2 428.2L383.28 431.82H393.3C393.2 433.26 393.04 434.16 392.82 434.54C392.58 434.9 391.98 435.1 391 435.1C390.16 435.1 389.22 435.04 388.14 434.94L388.82 436.84C389.6 436.94 390.48 437 391.46 437C392.94 437 393.92 436.68 394.44 436.06C394.96 435.42 395.28 433.38 395.44 429.94H385.78L386.32 428.2H398.12V426.18H379.86V428.2H384.2Z" fill="white"/>
<rect width="35" height="17" rx="2" transform="matrix(1 0 0 -1 420 396)" fill="#9F9F9F"/>
<rect width="35" height="17" rx="2" transform="matrix(1 0 0 -1 520 396)" fill="#9F9F9F"/>
<rect x="400" y="343" width="175" height="48" rx="5" fill="white"/>
<rect x="408" y="359" width="159" height="16" rx="2" fill="black"/>
<path fill-rule="evenodd" clip-rule="evenodd" d="M462 345C462 344.448 462.448 344 463 344H465C465.552 344 466 344.448 466 345V351C466 351.552 465.552 352 465 352H463C462.448 352 462 351.552 462 351V345ZM494 345C494 344.448 494.448 344 495 344H497C497.552 344 498 344.448 498 345V351C498 351.552 497.552 352 497 352H495C494.448 352 494 351.552 494 351V345ZM527 344C526.448 344 526 344.448 526 345V351C526 351.552 526.448 352 527 352H529C529.552 352 530 351.552 530 351V345C530 344.448 529.552 344 529 344H527ZM535 344C534.448 344 534 344.448 534 345V351C534 351.552 534.448 352 535 352H537C537.552 352 538 351.552 538 351V345C538 344.448 537.552 344 537 344H535ZM542 345C542 344.448 542.448 344 543 344H545C545.552 344 546 344.448 546 345V351C546 351.552 545.552 352 545 352H543C542.448 352 542 351.552 542 351V345ZM551 344C550.448 344 550 344.448 550 345V351C550 351.552 550.448 352 551 352H553C553.552 352 554 351.552 554 351V345C554 344.448 553.552 344 553 344H551ZM503 344C502.448 344 502 344.448 502 345V351C502 351.552 502.448 352 503 352H505C505.552 352 506 351.552 506 351V345C506 344.448 505.552 344 505 344H503ZM510 345C510 344.448 510.448 344 511 344H513C513.552 344 514 344.448 514 345V351C514 351.552 513.552 352 513 352H511C510.448 352 510 351.552 510 351V345ZM519 344C518.448 344 518 344.448 518 345V351C518 351.552 518.448 352 519 352H521C521.552 352 522 351.552 522 351V345C522 344.448 521.552 344 521 344H519ZM471 344C470.448 344 470 344.448 470 345V351C470 351.552 470.448 352 471 352H473C473.552 352 474 351.552 474 351V345C474 344.448 473.552 344 473 344H471ZM478 345C478 344.448 478.448 344 479 344H481C481.552 344 482 344.448 482 345V351C482 351.552 481.552 352 481 352H479C478.448 352 478 351.552 478 351V345ZM487 344C486.448 344 486 344.448 486 345V351C486 351.552 486.448 352 487 352H489C489.552 352 490 351.552 490 351V345C490 344.448 489.552 344 489 344H487Z" fill="url(#paint6_linear_32:1170)"/>
<rect x="414" y="365" width="71" height="4" rx="2" fill="url(#paint7_linear_32:1170)"/>
<path fill-rule="evenodd" clip-rule="evenodd" d="M504 365C502.895 365 502 365.895 502 367C502 368.105 502.895 369 504 369C505.105 369 506 368.105 506 367C506 365.895 505.105 365 504 365ZM511 367C511 365.895 511.895 365 513 365C514.105 365 515 365.895 515 367C515 368.105 514.105 369 513 369C511.895 369 511 368.105 511 367ZM522 365C520.895 365 520 365.895 520 367C520 368.105 520.895 369 522 369C523.105 369 524 368.105 524 367C524 365.895 523.105 365 522 365ZM529 367C529 365.895 529.895 365 531 365C532.105 365 533 365.895 533 367C533 368.105 532.105 369 531 369C529.895 369 529 368.105 529 367ZM540 365C538.895 365 538 365.895 538 367C538 368.105 538.895 369 540 369C541.105 369 542 368.105 542 367C542 365.895 541.105 365 540 365ZM549 365C547.895 365 547 365.895 547 367C547 368.105 547.895 369 549 369C550.105 369 551 368.105 551 367C551 365.895 550.105 365 549 365Z" fill="#FFD43D"/>
<path d="M441.54 429.58V451H457.5V448H445.05V441.52H456.27V438.52H445.05V432.58H456.99V429.58H441.54ZM467.538 435.07C465.558 435.07 463.998 435.4 462.858 436.12C461.508 436.9 460.668 438.16 460.338 439.87L463.728 440.14C463.908 439.33 464.358 438.73 465.018 438.34C465.588 437.98 466.338 437.83 467.298 437.83C469.518 437.83 470.628 438.82 470.628 440.86V441.46L467.238 441.55C464.958 441.61 463.188 442.09 461.928 442.99C460.548 443.92 459.888 445.27 459.888 447.01C459.888 448.3 460.368 449.35 461.328 450.19C462.258 451 463.518 451.42 465.138 451.42C466.488 451.42 467.658 451.18 468.648 450.73C469.518 450.31 470.268 449.74 470.868 448.96V451H474.048V441.1C474.048 439.21 473.568 437.77 472.608 436.78C471.528 435.64 469.818 435.07 467.538 435.07ZM470.628 443.92V444.7C470.628 445.9 470.148 446.89 469.248 447.67C468.348 448.42 467.238 448.81 465.918 448.81C465.168 448.81 464.568 448.6 464.088 448.24C463.608 447.88 463.398 447.43 463.398 446.89C463.398 445.03 464.748 444.07 467.478 444.01L470.628 443.92ZM483.506 435.07C481.586 435.07 480.056 435.46 478.886 436.3C477.686 437.08 477.116 438.19 477.116 439.63C477.116 440.98 477.716 442.03 478.916 442.78C479.666 443.26 480.956 443.71 482.786 444.13C484.346 444.49 485.366 444.76 485.846 445C486.746 445.42 487.196 445.99 487.196 446.71C487.196 447.97 485.996 448.63 483.596 448.63C482.456 448.63 481.646 448.42 481.136 448.06C480.626 447.64 480.266 446.95 480.086 445.96H476.756C477.086 449.59 479.396 451.42 483.716 451.42C488.366 451.42 490.706 449.77 490.706 446.47C490.706 445.09 490.076 443.98 488.846 443.2C488.006 442.63 486.686 442.15 484.946 441.73C483.386 441.34 482.366 441.04 481.856 440.83C481.016 440.47 480.626 440.02 480.626 439.54C480.626 438.94 480.866 438.52 481.406 438.25C481.856 437.98 482.546 437.86 483.446 437.86C484.496 437.86 485.276 438.01 485.786 438.34C486.266 438.64 486.626 439.21 486.866 439.99H490.196C489.836 436.69 487.586 435.07 483.506 435.07ZM500.018 435.07C497.708 435.07 495.878 435.85 494.558 437.44C493.178 439 492.518 440.92 492.518 443.23C492.518 445.81 493.238 447.82 494.678 449.29C496.028 450.7 497.858 451.42 500.168 451.42C502.238 451.42 503.948 450.82 505.328 449.65C506.408 448.69 507.128 447.46 507.488 446.02H504.068C503.648 446.89 503.198 447.52 502.688 447.91C502.028 448.39 501.188 448.63 500.138 448.63C498.908 448.63 497.948 448.24 497.288 447.49C496.628 446.74 496.238 445.63 496.118 444.19H507.728C507.728 441.4 507.098 439.21 505.868 437.65C504.518 435.91 502.568 435.07 500.018 435.07ZM500.108 437.86C502.508 437.86 503.858 439.09 504.158 441.61H496.178C496.388 440.38 496.808 439.45 497.438 438.82C498.098 438.16 498.968 437.86 500.108 437.86ZM510.74 429.58V451H514.25V442.78H519.56C524.78 442.78 527.39 440.56 527.39 436.15C527.39 431.77 524.78 429.58 519.62 429.58H510.74ZM514.25 432.58H519.35C520.88 432.58 522.02 432.85 522.74 433.42C523.46 433.96 523.85 434.86 523.85 436.15C523.85 437.44 523.49 438.37 522.77 438.94C522.05 439.48 520.91 439.78 519.35 439.78H514.25V432.58ZM532.408 429.16C531.748 429.16 531.208 429.37 530.758 429.79C530.308 430.21 530.098 430.75 530.098 431.41C530.098 432.07 530.308 432.61 530.758 433.06C531.208 433.48 531.748 433.69 532.408 433.69C533.068 433.69 533.608 433.48 534.058 433.06C534.508 432.64 534.748 432.07 534.748 431.41C534.748 430.75 534.508 430.21 534.088 429.79C533.638 429.37 533.068 429.16 532.408 429.16ZM530.698 435.49V451H534.118V435.49H530.698Z" fill="white"/>
<rect width="6" height="68" rx="2" transform="matrix(1 0 0 -1 543 596)" fill="#B4B4B4"/>
<path fill-rule="evenodd" clip-rule="evenodd" d="M536.777 521.397C538.955 518.713 542.277 517 546 517C549.723 517 553.045 518.713 555.223 521.397C555.571 521.826 556.201 521.892 556.63 521.544C557.059 521.196 557.125 520.566 556.777 520.137C554.235 517.005 550.351 515 546 515C541.649 515 537.765 517.005 535.224 520.137C534.876 520.566 534.941 521.196 535.37 521.544C535.799 521.892 536.429 521.826 536.777 521.397ZM540.791 525.612C542.032 524.007 543.911 523 546 523C548.089 523 549.968 524.007 551.209 525.612C551.547 526.049 552.175 526.129 552.612 525.791C553.049 525.453 553.129 524.825 552.791 524.388C551.201 522.332 548.755 521 546 521C543.245 521 540.799 522.332 539.209 524.388C538.871 524.825 538.951 525.453 539.388 525.791C539.825 526.129 540.453 526.049 540.791 525.612Z" fill="white"/>
<path fill-rule="evenodd" clip-rule="evenodd" d="M633.777 521.397C635.955 518.713 639.277 517 643 517C646.723 517 650.045 518.713 652.223 521.397C652.571 521.826 653.201 521.892 653.63 521.544C654.059 521.196 654.125 520.566 653.777 520.137C651.235 517.005 647.351 515 643 515C638.649 515 634.765 517.005 632.224 520.137C631.876 520.566 631.941 521.196 632.37 521.544C632.799 521.892 633.429 521.826 633.777 521.397ZM637.791 525.612C639.032 524.007 640.911 523 643 523C645.089 523 646.968 524.007 648.209 525.612C648.547 526.049 649.175 526.129 649.612 525.791C650.049 525.453 650.129 524.825 649.791 524.388C648.201 522.332 645.755 521 643 521C640.245 521 637.799 522.332 636.209 524.388C635.871 524.825 635.951 525.453 636.388 525.791C636.825 526.129 637.453 526.049 637.791 525.612Z" fill="white"/>
<rect width="6" height="68" rx="2" transform="matrix(1 0 0 -1 640 596)" fill="#B4B4B4"/>
<rect x="507" y="557" width="175" height="48" rx="5" fill="#625BFF"/>
<rect x="515" y="570" width="159" height="23" rx="2" fill="white" fill-opacity="0.5"/>
<rect x="515" y="573" width="159" height="16" rx="2" fill="white"/>
<path fill-rule="evenodd" clip-rule="evenodd" d="M569 559C569 558.448 569.448 558 570 558H572C572.552 558 573 558.448 573 559V565C573 565.552 572.552 566 572 566H570C569.448 566 569 565.552 569 565V559ZM601 559C601 558.448 601.448 558 602 558H604C604.552 558 605 558.448 605 559V565C605 565.552 604.552 566 604 566H602C601.448 566 601 565.552 601 565V559ZM634 558C633.448 558 633 558.448 633 559V565C633 565.552 633.448 566 634 566H636C636.552 566 637 565.552 637 565V559C637 558.448 636.552 558 636 558H634ZM642 558C641.448 558 641 558.448 641 559V565C641 565.552 641.448 566 642 566H644C644.552 566 645 565.552 645 565V559C645 558.448 644.552 558 644 558H642ZM649 559C649 558.448 649.448 558 650 558H652C652.552 558 653 558.448 653 559V565C653 565.552 652.552 566 652 566H650C649.448 566 649 565.552 649 565V559ZM658 558C657.448 558 657 558.448 657 559V565C657 565.552 657.448 566 658 566H660C660.552 566 661 565.552 661 565V559C661 558.448 660.552 558 660 558H658ZM610 558C609.448 558 609 558.448 609 559V565C609 565.552 609.448 566 610 566H612C612.552 566 613 565.552 613 565V559C613 558.448 612.552 558 612 558H610ZM617 559C617 558.448 617.448 558 618 558H620C620.552 558 621 558.448 621 559V565C621 565.552 620.552 566 620 566H618C617.448 566 617 565.552 617 565V559ZM626 558C625.448 558 625 558.448 625 559V565C625 565.552 625.448 566 626 566H628C628.552 566 629 565.552 629 565V559C629 558.448 628.552 558 628 558H626ZM578 558C577.448 558 577 558.448 577 559V565C577 565.552 577.448 566 578 566H580C580.552 566 581 565.552 581 565V559C581 558.448 580.552 558 580 558H578ZM585 559C585 558.448 585.448 558 586 558H588C588.552 558 589 558.448 589 559V565C589 565.552 588.552 566 588 566H586C585.448 566 585 565.552 585 565V559ZM594 558C593.448 558 593 558.448 593 559V565C593 565.552 593.448 566 594 566H596C596.552 566 597 565.552 597 565V559C597 558.448 596.552 558 596 558H594Z" fill="url(#paint8_linear_32:1170)"/>
<path fill-rule="evenodd" clip-rule="evenodd" d="M611 579C609.895 579 609 579.895 609 581C609 582.105 609.895 583 611 583C612.105 583 613 582.105 613 581C613 579.895 612.105 579 611 579ZM618 581C618 579.895 618.895 579 620 579C621.105 579 622 579.895 622 581C622 582.105 621.105 583 620 583C618.895 583 618 582.105 618 581ZM629 579C627.895 579 627 579.895 627 581C627 582.105 627.895 583 629 583C630.105 583 631 582.105 631 581C631 579.895 630.105 579 629 579ZM636 581C636 579.895 636.895 579 638 579C639.105 579 640 579.895 640 581C640 582.105 639.105 583 638 583C636.895 583 636 582.105 636 581ZM647 579C645.895 579 645 579.895 645 581C645 582.105 645.895 583 647 583C648.105 583 649 582.105 649 581C649 579.895 648.105 579 647 579ZM656 579C654.895 579 654 579.895 654 581C654 582.105 654.895 583 656 583C657.105 583 658 582.105 658 581C658 579.895 657.105 579 656 579Z" fill="black"/>
<path d="M510.336 638.58L516.486 660H520.236L524.436 643.89H524.556L528.726 660H532.446L538.626 638.58H534.666L530.646 654.87H530.526L526.296 638.58H522.666L518.436 654.87H518.316L514.296 638.58H510.336ZM540.879 638.58V660H544.389V638.58H540.879ZM547.984 650.82V653.64H563.134V650.82H547.984ZM566.748 638.58V660H570.258V650.52H580.728V647.52H570.258V641.58H581.358V638.58H566.748ZM584.209 638.58V660H587.719V638.58H584.209ZM592.214 636.24V646.56H596.384V658.62L594.914 659.01V649.32H592.154V659.67C591.734 659.76 591.284 659.85 590.834 659.97L591.704 663C595.814 662.01 599.444 660.93 602.594 659.79V656.64C601.544 657.03 600.434 657.42 599.294 657.78V653.43H601.964V650.49H599.294V646.56H602.114V642.93L603.704 645C604.484 644.4 605.204 643.74 605.924 643.02C606.524 644.1 607.244 645.09 608.054 646.02C606.194 647.37 603.944 648.54 601.334 649.56L603.224 652.11C603.524 651.99 603.824 651.84 604.184 651.69V663.03H607.154V661.95H613.304V663.03H616.304V651.63C616.604 651.75 616.904 651.84 617.234 651.96L619.004 649.38C616.514 648.6 614.324 647.49 612.464 646.08C614.174 644.28 615.494 642.21 616.394 639.9V637.65H609.494C609.734 637.11 609.944 636.51 610.124 635.91L607.124 635.31C606.224 638.04 604.574 640.38 602.114 642.3V636.24H592.214ZM607.754 640.8L608.024 640.41H613.064C612.344 641.73 611.384 642.96 610.244 644.13C609.284 643.11 608.474 642 607.754 640.8ZM616.004 651.51H604.604C606.704 650.52 608.594 649.38 610.214 648.12C611.834 649.5 613.784 650.61 616.004 651.51ZM599.144 643.68H595.214V639.12H599.144V643.68ZM607.154 659.13V654.33H613.304V659.13H607.154ZM646.454 639.87H636.404V635.43H633.224V639.87H623.174V663H626.294V661.26H643.334V663H646.454V639.87ZM626.294 658.23V651.57H633.224V658.23H626.294ZM636.404 658.23V651.57H643.334V658.23H636.404ZM626.294 648.69V642.84H633.224V648.69H626.294ZM636.404 642.84H643.334V648.69H636.404V642.84ZM653.744 636.3V644.28H663.554V636.3H653.744ZM660.734 641.7H656.564V638.94H660.734V641.7ZM666.134 636.3V644.28H672.014L670.004 644.94C670.364 645.42 670.694 645.93 671.054 646.5H664.784C665.084 645.96 665.354 645.39 665.594 644.82L662.624 644.49C662.324 645.15 661.934 645.84 661.454 646.5H651.464V649.26H658.544C656.624 650.58 654.104 651.69 650.924 652.59L652.364 655.17C652.964 654.99 653.534 654.78 654.134 654.57V663.15H656.864V662.01H660.914V663.15H663.674V653.19H657.374C659.534 652.11 661.334 650.79 662.774 649.26H667.574C668.834 650.7 670.544 652.02 672.764 653.19H665.924V663.15H668.684V662.01H673.244V663.15H676.004V654.66C676.424 654.84 676.934 655.02 677.474 655.2L678.734 652.53C675.464 651.69 672.914 650.61 671.084 649.26H678.164V646.5H674.114C673.724 645.72 673.274 645 672.794 644.28H676.244V636.3H666.134ZM673.424 641.7H668.954V638.94H673.424V641.7ZM656.864 659.37V655.77H660.914V659.37H656.864ZM668.684 659.37V655.77H673.244V659.37H668.684Z" fill="white"/>
<path fill-rule="evenodd" clip-rule="evenodd" d="M468 617.5V650C468 652.761 465.761 655 463 655H266C263.239 655 261 652.761 261 650V546C261 543.239 263.239 541 266 541H297.5H321.5H463C465.761 541 468 543.239 468 546V586.5L488 600.5L468 617.5Z" fill="#646464"/>
<path fill-rule="evenodd" clip-rule="evenodd" d="M385 580C385 577.239 387.239 575 390 575H448C450.761 575 453 577.239 453 580V616C453 618.761 450.761 621 448 621H425V625.746H434.224V628.791H403.776V625.746H413V621H390C387.239 621 385 618.761 385 616V580Z" fill="black"/>
<rect x="387" y="577" width="64" height="42" rx="2" fill="url(#paint9_linear_32:1170)"/>
<path fill-rule="evenodd" clip-rule="evenodd" d="M419 559C415.277 559 411.955 560.713 409.777 563.397C409.429 563.826 408.799 563.892 408.37 563.544C407.941 563.196 407.876 562.566 408.224 562.137C410.765 559.005 414.649 557 419 557C423.351 557 427.235 559.005 429.777 562.137C430.125 562.566 430.059 563.196 429.63 563.544C429.201 563.892 428.571 563.826 428.223 563.397C426.045 560.713 422.723 559 419 559ZM421 571C421 572.105 420.105 573 419 573C417.895 573 417 572.105 417 571C417 569.895 417.895 569 419 569C420.105 569 421 569.895 421 571ZM413.791 567.612C415.032 566.007 416.911 565 419 565C421.089 565 422.968 566.007 424.209 567.612C424.547 568.049 425.175 568.129 425.612 567.791C426.049 567.453 426.129 566.825 425.791 566.388C424.201 564.332 421.755 563 419 563C416.245 563 413.799 564.332 412.209 566.388C411.871 566.825 411.951 567.453 412.388 567.791C412.825 568.129 413.453 568.049 413.791 567.612Z" fill="white"/>
<path fill-rule="evenodd" clip-rule="evenodd" d="M279 592C279 591.448 279.448 591 280 591H330C330.552 591 331 591.448 331 592V624C331 624.552 330.552 625 330 625H307V626L329 628.25V629L307 629H304L282 629V628.25L304 626V625H280C279.448 625 279 624.552 279 624V592Z" fill="black"/>
<rect x="280" y="592" width="50" height="32" rx="1" fill="url(#paint10_linear_32:1170)"/>
<path fill-rule="evenodd" clip-rule="evenodd" d="M305 575C301.277 575 297.955 576.713 295.777 579.397C295.429 579.826 294.799 579.892 294.37 579.544C293.941 579.196 293.876 578.566 294.224 578.137C296.765 575.005 300.649 573 305 573C309.351 573 313.235 575.005 315.777 578.137C316.125 578.566 316.059 579.196 315.63 579.544C315.201 579.892 314.571 579.826 314.223 579.397C312.045 576.713 308.723 575 305 575ZM307 587C307 588.105 306.105 589 305 589C303.895 589 303 588.105 303 587C303 585.895 303.895 585 305 585C306.105 585 307 585.895 307 587ZM299.791 583.612C301.032 582.007 302.911 581 305 581C307.089 581 308.968 582.007 310.209 583.612C310.547 584.049 311.175 584.129 311.612 583.791C312.049 583.453 312.129 582.825 311.791 582.388C310.201 580.332 307.755 579 305 579C302.245 579 299.799 580.332 298.209 582.388C297.871 582.825 297.951 583.453 298.388 583.791C298.825 584.129 299.453 584.049 299.791 583.612Z" fill="white"/>
<path d="M345 587C345 585.895 345.895 585 347 585H369C370.105 585 371 585.895 371 587V627C371 628.105 370.105 629 369 629H347C345.895 629 345 628.105 345 627V587Z" fill="black"/>
<rect x="346.25" y="586.25" width="23.5" height="41.5" rx="1.75" fill="url(#paint11_linear_32:1170)" stroke="#4D4D4D" stroke-width="0.5"/>
<path fill-rule="evenodd" clip-rule="evenodd" d="M358 569C354.277 569 350.955 570.713 348.777 573.397C348.429 573.826 347.799 573.892 347.37 573.544C346.941 573.196 346.876 572.566 347.224 572.137C349.765 569.005 353.649 567 358 567C362.351 567 366.235 569.005 368.777 572.137C369.125 572.566 369.059 573.196 368.63 573.544C368.201 573.892 367.571 573.826 367.223 573.397C365.045 570.713 361.723 569 358 569ZM360 581C360 582.105 359.105 583 358 583C356.895 583 356 582.105 356 581C356 579.895 356.895 579 358 579C359.105 579 360 579.895 360 581ZM352.791 577.612C354.032 576.007 355.911 575 358 575C360.089 575 361.968 576.007 363.209 577.612C363.547 578.049 364.175 578.129 364.612 577.791C365.049 577.453 365.129 576.825 364.791 576.388C363.201 574.332 360.755 573 358 573C355.245 573 352.799 574.332 351.209 576.388C350.871 576.825 350.951 577.453 351.388 577.791C351.825 578.129 352.453 578.049 352.791 577.612Z" fill="white"/>
<defs>
<linearGradient id="paint0_linear_32:1170" x1="347" y1="0" x2="347" y2="707" gradientUnits="userSpaceOnUse">
<stop stop-color="#E95C73"/>
<stop offset="1" stop-color="#625CFF"/>
</linearGradient>
<linearGradient id="paint1_linear_32:1170" x1="351.161" y1="79" x2="351.161" y2="160.262" gradientUnits="userSpaceOnUse">
<stop stop-color="#87CDFF"/>
<stop offset="1" stop-color="#1888DA"/>
</linearGradient>
<linearGradient id="paint2_linear_32:1170" x1="263.751" y1="102.966" x2="263.751" y2="184.229" gradientUnits="userSpaceOnUse">
<stop stop-color="#93D1FF"/>
<stop offset="1" stop-color="#0D99FE"/>
</linearGradient>
<linearGradient id="paint3_linear_32:1170" x1="156.75" y1="117.196" x2="156.75" y2="143.302" gradientUnits="userSpaceOnUse">
<stop stop-color="#93D1FF"/>
<stop offset="1" stop-color="#0D99FE" stop-opacity="0.79"/>
</linearGradient>
<linearGradient id="paint4_linear_32:1170" x1="572.7" y1="158.388" x2="572.7" y2="184.494" gradientUnits="userSpaceOnUse">
<stop stop-color="#93D1FF"/>
<stop offset="1" stop-color="#0D99FE" stop-opacity="0.79"/>
</linearGradient>
<linearGradient id="paint5_linear_32:1170" x1="452.888" y1="102.966" x2="452.888" y2="184.229" gradientUnits="userSpaceOnUse">
<stop stop-color="#93D1FF"/>
<stop offset="1" stop-color="#0D99FE"/>
</linearGradient>
<linearGradient id="paint6_linear_32:1170" x1="462" y1="348" x2="564" y2="350" gradientUnits="userSpaceOnUse">
<stop stop-opacity="0.71"/>
<stop offset="0.489592" stop-color="#383838" stop-opacity="0.87"/>
<stop offset="1" stop-opacity="0.63"/>
</linearGradient>
<linearGradient id="paint7_linear_32:1170" x1="414" y1="365" x2="490.5" y2="367" gradientUnits="userSpaceOnUse">
<stop stop-color="#5BF0FF" stop-opacity="0.61"/>
<stop offset="1" stop-color="#625BFF" stop-opacity="0.63"/>
</linearGradient>
<linearGradient id="paint8_linear_32:1170" x1="569" y1="562" x2="671" y2="564" gradientUnits="userSpaceOnUse">
<stop stop-color="#F4F4F4" stop-opacity="0.71"/>
<stop offset="0.489592" stop-color="#F4F4F4" stop-opacity="0.87"/>
<stop offset="1" stop-color="#F4F4F4" stop-opacity="0.63"/>
</linearGradient>
<linearGradient id="paint9_linear_32:1170" x1="387" y1="577" x2="447.756" y2="620.769" gradientUnits="userSpaceOnUse">
<stop stop-color="white"/>
<stop offset="0.546614" stop-color="white"/>
<stop offset="1" stop-color="#FCFCFC"/>
</linearGradient>
<linearGradient id="paint10_linear_32:1170" x1="280" y1="592" x2="326.646" y2="626.458" gradientUnits="userSpaceOnUse">
<stop stop-color="white"/>
<stop offset="0.546614" stop-color="white"/>
<stop offset="1" stop-color="#FCFCFC"/>
</linearGradient>
<linearGradient id="paint11_linear_32:1170" x1="355.5" y1="584.5" x2="378.465" y2="605.3" gradientUnits="userSpaceOnUse">
<stop/>
<stop offset="0.546614" stop-color="#222222"/>
<stop offset="1"/>
</linearGradient>
</defs>
</svg>
