<?xml version="1.0" encoding="UTF-8"?>
<svg width="648px" height="186px" viewBox="0 0 648 186" version="1.1" xmlns="http://www.w3.org/2000/svg" xmlns:xlink="http://www.w3.org/1999/xlink">
    <title>Part1_title</title>
    <defs>
        <linearGradient x1="0%" y1="12.6379459%" x2="83.1358461%" y2="78.9641096%" id="linearGradient-1">
            <stop stop-color="#C4C4C4" offset="0%"></stop>
            <stop stop-color="#FFFFFF" offset="100%"></stop>
        </linearGradient>
    </defs>
    <g id="Part1_title" stroke="none" stroke-width="1" fill="none" fill-rule="evenodd">
        <g id="Group" fill-rule="nonzero">
            <path d="M164.871581,0 C178.610843,0 189.77473,11.0464702 189.996634,24.757646 L190,25.1739432 L190,186 L155.82535,186 L155.82535,50.4191839 L44.284,186 L-0.001,186 L145.480346,9.16320342 C150.253781,3.36094312 157.366232,0 164.871581,0 Z" id="Combined-Shape" fill="#FFFFFF"></path>
            <g id="Group-2" transform="translate(250.000000, 0.000000)">
                <path d="M39.1303577,97.4370105 L133.749301,185.999011 L86.6493007,185.999011 L17.3893007,121.172573 L39.1303577,97.4370105 Z" id="Combined-Shape" fill="url(#linearGradient-1)"></path>
                <path d="M79.5,0 C109.599519,0 134,24.6657038 134,55.0923913 C134,85.214812 110.085088,109.690892 80.4012572,110.177402 L79.5,110.184783 L32,110.184783 L32,186 L0,186 L0,94.0108696 C0,85.1846046 6.99390104,78.0096083 15.6851293,77.8400259 L16,77.8369565 L79.5,77.8369565 C91.9264069,77.8369565 102,67.6538678 102,55.0923913 C102,42.6565296 92.1268714,32.5517257 79.8720786,32.3508732 L79.5,32.3478261 L0,32.3478261 L0,0 L79.5,0 Z" id="Path-6" fill="#FFFFFF"></path>
            </g>
            <path d="M548,0 L548,16 L564,16 L564,32.172973 L548,32.172 L548,17 L532,17 L532,32.172 L484.509523,32.172973 L484.137379,32.1760036 C471.880445,32.3757704 462.005591,42.4259537 462.005591,54.7945946 C462.005591,67.2881712 472.080945,77.4162162 484.509523,77.4162162 L484.509523,77.4162162 L510.013978,77.4162162 L510.907123,77.4234898 C540.323765,77.9029301 564,102.02337 564,131.708108 C564,161.692692 539.842566,186 510.013978,186 L510.013978,186 L462,186 L462,170 L446,170 L446,186 L430,186 L430,169 L446,169 L446,153.827 L462,153.827 L462,169 L478,169 L478,153.827 L510.013978,153.827027 L510.377852,153.824064 C522.36241,153.628736 532.017822,143.80189 532.017822,131.708108 C532.017822,119.492167 522.166366,109.589189 510.013978,109.589189 L510.013978,109.589189 L484.509523,109.589189 L483.608108,109.581848 C453.91909,109.097969 430,84.7541914 430,54.7945946 C430,24.5323756 454.404745,0 484.509523,0 L484.509523,0 L516,0 L516,16 L532,16 L532,0 L548,0 Z" id="Combined-Shape" fill="#FFFFFF"></path>
            <g id="Group-3" transform="translate(604.000000, 0.000000)" fill="#0060FF">
                <path d="M14,60 L14,74 L0,74 L0,60 L14,60 Z M29,60 L29,74 L15,74 L15,60 L29,60 Z M44,60 L44,74 L30,74 L30,60 L44,60 Z M14,45 L14,59 L0,59 L0,45 L14,45 Z M29,30 L29,44 L15,44 L15,30 L29,30 Z M44,30 L44,44 L30,44 L30,30 L44,30 Z M14,30 L14,44 L0,44 L0,30 L14,30 Z M44,15 L44,29 L30,29 L30,15 L44,15 Z M14,0 L14,14 L0,14 L0,0 L14,0 Z M29,0 L29,14 L15,14 L15,0 L29,0 Z M44,0 L44,14 L30,14 L30,0 L44,0 Z" id="Combined-Shape"></path>
            </g>
        </g>
    </g>
</svg>